<svg xmlns="http://www.w3.org/2000/svg" viewBox="87 64 246 301" role="img">
  <title>NgheGo</title>
  <desc>NgheGo geometric bird icon. Set CSS `color` property to control fill.</desc>
  <style>
    .f { fill: #000000; }
    @media (prefers-color-scheme: dark) {
      .f { fill: #ffffff; }
    }
  </style>
  <g transform="translate(0,454) scale(0.1,-0.1)">
    <path class="f" fill-rule="evenodd" d="
      M3277 3310
      c-5 -478 -8 -506 -66 -674
      c-122 -347 -429 -617 -790 -695
      c-100 -22 -221 -35 -221 -24
      c0 4 30 38 67 75
      c67 68 67 68 -95 68
      c-89 0 -162 2 -162 4
      c0 2 35 138 79 303
      c43 164 81 312 85 328
      c4 17 9 39 12 50
      c3 11 -84 -69 -193 -178
      c-153 -152 -202 -195 -210 -185
      c-5 7 -74 123 -153 258
      c-79 135 -180 308 -225 385
      c-262 445 -334 569 -331 572
      c1 2 252 -80 557 -182
      c305 -102 555 -185 557 -185
      c1 0 2 -103 2 -230
      c0 -126 2 -230 5 -230
      c3 0 248 242 543 538
      c537 537 537 537 540 492
      c2 -25 2 -245 -1 -490 z
      M1560 2135
      c-225 -225 -225 -225 -432 -225
      c-208 0 -208 0 -208 39
      c0 99 77 249 161 312
      c49 38 135 79 183 89
      c22 4 149 8 281 9
      c240 1 240 1 15 -224 z
      M1665 1893
      c-3 -10 -12 -43 -20 -73
      c-18 -77 -94 -365 -111 -424
      c-28 -98 -22 -95 164 81
      c195 187 229 213 316 243
      c93 32 178 27 410 -24
      c111 -24 329 -72 486 -106
      c157 -35 288 -65 292 -69
      c4 -3 -166 -136 -378 -295
      c-327 -246 -387 -287 -398 -275
      c-7 8 -62 93 -121 189
      c-59 96 -146 237 -192 312
      c-47 76 -88 140 -93 143
      c-4 2 -11 -18 -14 -47
      c-14 -107 -92 -209 -195 -256
      c-81 -38 -193 -38 -272 0
      c-71 35 -135 98 -168 168
      c-24 52 -25 66 -29 253
      c-4 197 -4 197 163 197
      c155 0 167 -1 160 -17 z
    "/>
  </g>
</svg>
